mtllib material.mtl
usemtl material_0
v -0.01270000 0.01270000 -0.00000025
v -0.01270000 0.01270000 -0.00000025
v -0.01270000 0.01270000 -0.00000025
v -0.01270000 0.01270000 0.00000000
v -0.01270000 0.01270000 0.00000000
v -0.01270000 0.01270000 0.00000000
v 0.01270000 0.01270000 0.00000000
v 0.01270000 0.01270000 0.00000000
v 0.01270000 0.01270000 0.00000000
v 0.01270000 0.01270000 -0.00000025
v 0.01270000 0.01270000 -0.00000025
v 0.01270000 0.01270000 -0.00000025
v 0.01270000 -0.01270000 0.00000000
v 0.01270000 -0.01270000 0.00000000
v 0.01270000 -0.01270000 0.00000000
v 0.01270000 -0.01270000 -0.00000025
v 0.01270000 -0.01270000 -0.00000025
v 0.01270000 -0.01270000 -0.00000025
v -0.01270000 -0.01270000 0.00000000
v -0.01270000 -0.01270000 0.00000000
v -0.01270000 -0.01270000 0.00000000
v -0.01270000 -0.01270000 -0.00000025
v -0.01270000 -0.01270000 -0.00000025
v -0.01270000 -0.01270000 -0.00000025
vn 0.00000000 1.00000000 0.00000000
vn -1.00000000 0.00000000 0.00000000
vn 0.00000000 0.00000000 -1.00000000
vn 0.00000000 1.00000000 0.00000000
vn 0.00000000 0.00000000 1.00000000
vn -1.00000000 0.00000000 0.00000000
vn 0.00000000 1.00000000 0.00000000
vn 1.00000000 -0.00000000 0.00000000
vn 0.00000000 0.00000000 1.00000000
vn 0.00000000 0.00000000 -1.00000000
vn 1.00000000 -0.00000000 0.00000000
vn 0.00000000 1.00000000 0.00000000
vn 0.00000000 0.00000000 1.00000000
vn 1.00000000 -0.00000000 0.00000000
vn 0.00000000 -1.00000000 0.00000000
vn 1.00000000 -0.00000000 0.00000000
vn 0.00000000 0.00000000 -1.00000000
vn 0.00000000 -1.00000000 0.00000000
vn 0.00000000 0.00000000 1.00000000
vn -1.00000000 0.00000000 0.00000000
vn 0.00000000 -1.00000000 0.00000000
vn 0.00000000 0.00000000 -1.00000000
vn -1.00000000 0.00000000 0.00000000
vn 0.00000000 -1.00000000 0.00000000
f 1//1 4//4 7//7
f 7//7 12//12 1//1
f 11//11 8//8 14//14
f 14//14 16//16 11//11
f 18//18 15//15 21//21
f 21//21 24//24 18//18
f 23//23 20//20 6//6
f 6//6 2//2 23//23
f 10//10 17//17 22//22
f 22//22 3//3 10//10
f 9//9 5//5 19//19
f 19//19 13//13 9//9

