mtllib material.mtl
usemtl material_0
v 0.50165000 -0.27940000 0.17780000
v 0.50165000 -0.27940000 0.17780000
v 0.50165000 -0.27940000 0.17780000
v 0.50165000 -0.27940000 0.15240000
v 0.50165000 -0.27940000 0.15240000
v 0.50165000 -0.27940000 0.15240000
v 0.50165000 0.10160000 0.15240000
v 0.50165000 0.10160000 0.15240000
v 0.50165000 0.10160000 0.17780000
v 0.50165000 0.10160000 0.17780000
v 0.50800000 0.10160000 0.15240000
v 0.50800000 0.10160000 0.17780000
v -0.15240000 -0.27940000 0.17780000
v -0.15240000 -0.27940000 0.17780000
v -0.15240000 -0.27940000 0.17780000
v -0.15240000 -0.27940000 0.15240000
v -0.15240000 -0.27940000 0.15240000
v 0.38100000 -0.27940000 0.15240000
v 0.38100000 -0.27940000 0.15240000
v -0.15240000 -0.45720000 0.17780000
v -0.15240000 -0.45720000 0.17780000
v -0.15240000 -0.45720000 0.17780000
v -0.15240000 -0.45720000 0.15240000
v -0.15240000 -0.45720000 0.15240000
v -0.17780000 -0.45720000 0.17780000
v -0.17780000 -0.45720000 0.17780000
v -0.17780000 -0.45720000 0.17780000
v -0.17780000 -0.45720000 0.15240000
v -0.17780000 -0.45720000 0.15240000
v -0.17780000 0.17780000 0.17780000
v -0.17780000 0.17780000 0.17780000
v -0.17780000 0.17780000 0.17780000
v -0.17780000 0.17780000 0.15240000
v -0.17780000 0.17780000 0.15240000
v 0.91440000 0.17780000 0.17780000
v 0.91440000 0.17780000 0.17780000
v 0.91440000 0.17780000 0.17780000
v 0.38100000 0.17780000 0.15240000
v 0.38100000 0.17780000 0.15240000
v 0.91440000 0.17780000 0.15240000
v 0.91440000 0.17780000 0.15240000
v 0.91440000 0.17780000 0.15240000
v 0.91440000 0.15240000 0.17780000
v 0.91440000 0.15240000 0.17780000
v 0.91440000 0.15240000 0.17780000
v 0.91440000 0.15240000 0.15240000
v 0.91440000 0.15240000 0.15240000
v 0.91440000 0.15240000 0.15240000
v 0.52705000 0.15240000 0.17780000
v 0.52705000 0.15240000 0.17780000
v 0.52705000 0.15240000 0.15240000
v 0.52705000 0.15240000 0.15240000
v 0.52705000 0.10795000 0.17780000
v 0.52705000 0.10795000 0.15240000
v 0.50800000 0.10795000 0.15240000
v 0.50800000 0.10795000 0.17780000
v 0.47625000 0.15240000 0.15240000
v 0.47625000 0.15240000 0.15240000
v 0.47625000 0.15240000 0.15240000
v 0.47625000 -0.25400000 0.15240000
v 0.47625000 -0.25400000 0.15240000
v 0.38100000 -0.25400000 0.15240000
v 0.38100000 0.15240000 0.15240000
v 0.38100000 0.15240000 0.15240000
v 0.47625000 0.15240000 0.17780000
v 0.47625000 0.15240000 0.17780000
v 0.47625000 0.15240000 0.17780000
v 0.47625000 -0.25400000 0.17780000
v 0.47625000 -0.25400000 0.17780000
v 0.15240000 0.15240000 0.17780000
v 0.15240000 0.15240000 0.17780000
v 0.15240000 0.15240000 0.15240000
v -0.15240000 -0.25400000 0.17780000
v -0.15240000 -0.25400000 0.17780000
v -0.15240000 -0.25400000 0.15240000
v -0.15240000 -0.15240000 0.15240000
v -0.15240000 -0.15240000 0.17780000
v -0.15240000 -0.15240000 0.17780000
v -0.15240000 0.15240000 0.17780000
vn 1.00000000 0.00000000 0.00000000
vn 0.00000000 0.00000000 1.00000000
vn 0.00000000 -1.00000000 0.00000000
vn 1.00000000 0.00000000 0.00000000
vn 0.00000000 0.00000000 -1.00000000
vn 0.00000000 -1.00000000 0.00000000
vn 0.00000000 0.00000000 -1.00000000
vn 1.00000000 0.00000000 0.00000000
vn 0.00000000 0.00000000 1.00000000
vn 1.00000000 0.00000000 0.00000000
vn 0.00000000 0.00000000 -1.00000000
vn 0.00000000 0.00000000 1.00000000
vn 0.00000000 0.00000000 1.00000000
vn 1.00000000 0.00000000 0.00000000
vn 0.00000000 -1.00000000 0.00000000
vn 1.00000000 0.00000000 0.00000000
vn 0.00000000 -1.00000000 0.00000000
vn 0.00000000 -1.00000000 0.00000000
vn 0.00000000 0.00000000 -1.00000000
vn 0.00000000 -1.00000000 0.00000000
vn 0.00000000 0.00000000 1.00000000
vn 1.00000000 0.00000000 0.00000000
vn 0.00000000 -1.00000000 0.00000000
vn 1.00000000 0.00000000 0.00000000
vn -1.00000000 -0.00000000 0.00000000
vn 0.00000000 -1.00000000 0.00000000
vn 0.00000000 0.00000000 1.00000000
vn 0.00000000 -1.00000000 0.00000000
vn -1.00000000 -0.00000000 0.00000000
vn -1.00000000 -0.00000000 0.00000000
vn 0.00000000 1.00000000 0.00000000
vn 0.00000000 0.00000000 1.00000000
vn 0.00000000 1.00000000 0.00000000
vn -1.00000000 -0.00000000 0.00000000
vn 1.00000000 0.00000000 0.00000000
vn 0.00000000 0.00000000 1.00000000
vn 0.00000000 1.00000000 0.00000000
vn 0.00000000 1.00000000 0.00000000
vn 0.00000000 0.00000000 -1.00000000
vn 0.00000000 0.00000000 -1.00000000
vn 0.00000000 1.00000000 0.00000000
vn 1.00000000 0.00000000 0.00000000
vn 0.00000000 0.00000000 1.00000000
vn 1.00000000 0.00000000 0.00000000
vn 0.00000000 -1.00000000 0.00000000
vn 0.00000000 0.00000000 -1.00000000
vn 1.00000000 0.00000000 0.00000000
vn 0.00000000 -1.00000000 0.00000000
vn 0.00000000 0.00000000 1.00000000
vn 0.00000000 -1.00000000 0.00000000
vn 0.00000000 0.00000000 -1.00000000
vn 0.00000000 -1.00000000 0.00000000
vn 0.00000000 0.00000000 1.00000000
vn 0.00000000 0.00000000 -1.00000000
vn 0.00000000 0.00000000 -1.00000000
vn 0.00000000 0.00000000 1.00000000
vn 0.00000000 0.00000000 -1.00000000
vn -1.00000000 0.00000000 0.00000000
vn 0.00000000 -1.00000000 0.00000000
vn -1.00000000 0.00000000 0.00000000
vn 0.00000000 0.00000000 -1.00000000
vn 0.00000000 0.00000000 -1.00000000
vn 0.00000000 0.00000000 -1.00000000
vn 0.00000000 -1.00000000 0.00000000
vn 0.00000000 -1.00000000 0.00000000
vn -1.00000000 0.00000000 0.00000000
vn 0.00000000 0.00000000 1.00000000
vn -1.00000000 0.00000000 0.00000000
vn 0.00000000 0.00000000 1.00000000
vn 0.00000000 0.00000000 1.00000000
vn 0.00000000 -1.00000000 0.00000000
vn 0.00000000 -1.00000000 0.00000000
vn 0.00000000 0.00000000 1.00000000
vn 1.00000000 0.00000000 0.00000000
vn 1.00000000 0.00000000 0.00000000
vn 1.00000000 0.00000000 0.00000000
vn 0.00000000 0.00000000 1.00000000
vn 1.00000000 0.00000000 0.00000000
vn 0.00000000 0.00000000 1.00000000
f 1//1 4//4 8//8
f 8//8 10//10 1//1
f 15//15 17//17 18//18
f 18//18 3//3 15//15
f 18//18 6//6 3//3
f 22//22 24//24 16//16
f 16//16 14//14 22//22
f 26//26 28//28 23//23
f 23//23 20//20 26//26
f 30//30 34//34 29//29
f 29//29 25//25 30//30
f 31//31 37//37 38//38
f 37//37 41//41 38//38
f 38//38 33//33 31//31
f 44//44 47//47 42//42
f 42//42 35//35 44//44
f 45//45 50//50 52//52
f 52//52 48//48 45//45
f 39//39 51//51 57//57
f 51//51 54//54 55//55
f 7//7 57//57 55//55
f 55//55 57//57 51//51
f 61//61 57//57 7//7
f 19//19 62//62 61//61
f 57//57 63//63 39//39
f 40//40 46//46 51//51
f 61//61 5//5 19//19
f 51//51 39//39 40//40
f 55//55 11//11 7//7
f 7//7 5//5 61//61
f 66//66 58//58 60//60
f 60//60 68//68 66//66
f 71//71 72//72 64//64
f 64//64 65//65 71//71
f 64//64 59//59 65//65
f 75//75 76//76 78//78
f 78//78 74//74 75//75
f 32//32 70//70 67//67
f 32//32 27//27 77//77
f 32//32 79//79 70//70
f 27//27 73//73 77//77
f 13//13 2//2 69//69
f 27//27 21//21 13//13
f 36//36 67//67 49//49
f 49//49 67//67 56//56
f 77//77 79//79 32//32
f 13//13 73//73 27//27
f 56//56 53//53 49//49
f 9//9 12//12 56//56
f 69//69 73//73 13//13
f 69//69 2//2 9//9
f 56//56 67//67 9//9
f 9//9 67//67 69//69
f 67//67 36//36 32//32
f 49//49 43//43 36//36

